<svg xmlns="http://www.w3.org/2000/svg" width="963" height="503" version="1.0" viewBox="0 0 722.25 377.25"><defs><clipPath id="a"><path d="M338.188 81H582v106H338.187Zm0 0"/></clipPath></defs><path fill="#201f1e" d="M119.075 129.932v.235c2.988.562 6.016 1.671 9.078 3.328a23.282 23.282 0 0 1 7.75 6.734c2.102 2.824 3.157 6.418 3.157 10.781 0 4.356-1.172 8.293-3.516 11.813-2.344 3.511-5.918 6.32-10.719 8.422-4.805 2.093-10.883 3.14-18.234 3.14H62.856V85.948h43.735c6.625 0 12.156 1.031 16.594 3.094 4.445 2.062 7.82 4.851 10.125 8.359 2.3 3.512 3.453 7.492 3.453 11.937 0 4.2-.89 7.715-2.672 10.547-1.774 2.824-4.012 5.043-6.719 6.657-2.71 1.617-5.477 2.746-8.297 3.39Zm-12.969-27.14H82.247v19.984h24.469c3.226 0 5.75-.906 7.562-2.719 1.82-1.82 2.735-4.226 2.735-7.219 0-3.144-.934-5.601-2.797-7.375-1.856-1.78-4.559-2.671-8.11-2.671Zm-23.859 54.75h23.86c4.769 0 8.16-.883 10.171-2.657 2.02-1.781 3.032-4.242 3.032-7.39 0-3.07-1.032-5.493-3.094-7.266-2.055-1.781-5.219-2.672-9.5-2.672H82.247Zm78.495-66.016c0-3.07-.97-5.555-2.907-7.453-1.937-1.895-4.562-2.844-7.875-2.844-3.386 0-6.054.95-8 2.844-1.937 1.898-2.906 4.383-2.906 7.453 0 3.148.969 5.652 2.906 7.516 1.946 1.855 4.614 2.78 8 2.78 3.313 0 5.938-.925 7.875-2.78 1.938-1.864 2.907-4.368 2.907-7.516Zm-1.094 82.86h-19.375v-64.204h19.375Zm0 0"/><path fill="#201f1e" d="M187.036 91.526c0-3.07-.968-5.555-2.906-7.453-1.937-1.895-4.562-2.844-7.875-2.844-3.398 0-6.062.95-8 2.844-1.937 1.898-2.906 4.383-2.906 7.453 0 3.148.969 5.652 2.906 7.516 1.938 1.855 4.602 2.78 8 2.78 3.313 0 5.938-.925 7.875-2.78 1.938-1.864 2.906-4.368 2.906-7.516Zm-20.36 18.656h19.392v64.563c0 8.562-2.024 14.922-6.063 19.078-4.043 4.164-10.059 6.25-18.047 6.25-2.262 0-4.336-.164-6.234-.485a105.526 105.526 0 0 1-5.031-.968v-15.641a81.5 81.5 0 0 0 3.812.422c1.336.125 2.648.187 3.938.187 2.82 0 4.898-.71 6.234-2.125 1.332-1.406 2-3.765 2-7.078Zm55.128-1.578c20.75 0 31.125 10.258 31.125 30.766v35.015h-9.563l-5.453-17.687c-2.023 6.062-5.496 10.793-10.422 14.187-4.93 3.387-10.945 5.078-18.046 5.078-6.625 0-11.735-1.613-15.329-4.843-3.593-3.227-5.39-7.145-5.39-11.75 0-6.54 2.68-11.79 8.047-15.75 5.375-3.957 13.914-6.786 25.625-8.485l11.156-1.578c-.492-3.469-1.664-5.945-3.516-7.437-1.855-1.5-4.64-2.25-8.36-2.25-3.792 0-6.6.773-8.421 2.312-1.812 1.531-3.008 3.59-3.578 6.172h-19.5c.883-7.031 3.832-12.742 8.844-17.14 5.007-4.407 12.601-6.61 22.78-6.61Zm-5.813 52.328c3.47 0 6.551-.765 9.25-2.297 2.707-1.531 4.868-3.586 6.485-6.172 1.613-2.582 2.422-5.367 2.422-8.359l-6.532.844c-6.71 1.054-11.578 2.469-14.609 4.25-3.023 1.773-4.531 3.828-4.531 6.172 0 1.53.625 2.843 1.875 3.937 1.25 1.086 3.129 1.625 5.64 1.625Zm107.33 13.453h-21.453l-16.235-28.343-9.562 11.984v16.36h-18.656V85.947h18.656v54.031l23.016-29.797h23.14l-21.078 26.406Zm-210.777 92.557 24-57.922h25.562v88.453h-19.75v-58.64l-24.593 58.64H107.09l-24.469-59.015v59.015h-19.75V209.02H88.67Zm119.586-5.452c0 3.062-.165 5.765-.485 8.108H183.3c.563 5.012 2.078 8.633 4.547 10.86 2.469 2.219 5.758 3.328 9.875 3.328 4.04 0 7.031-.723 8.969-2.172 1.937-1.457 3.347-3.32 4.234-5.594h20.125c-.648 4.043-2.246 7.825-4.797 11.344-2.543 3.512-6.078 6.34-10.61 8.484-4.522 2.133-10.17 3.204-16.952 3.204-7.106 0-13.227-1.356-18.36-4.063-5.125-2.707-9.062-6.484-11.812-11.328-2.75-4.844-4.125-10.54-4.125-17.094v-2.422c0-6.539 1.375-12.254 4.125-17.14 2.75-4.883 6.707-8.66 11.875-11.328 5.164-2.664 11.383-4 18.656-4 6.875 0 12.774 1.277 17.703 3.828 4.926 2.543 8.72 6.054 11.375 10.531 2.664 4.48 4 9.633 4 15.453Zm-33.563-15.032c-4.2 0-7.59.992-10.172 2.969-2.586 1.98-4.242 5.152-4.969 9.515h29.328c-.492-4.281-1.949-7.43-4.375-9.453-2.418-2.02-5.687-3.031-9.812-3.031Zm117.417-14.422c6.54 0 11.973 2.45 16.297 7.344 4.32 4.886 6.484 12.258 6.484 22.11v35.983H319.5v-34.53c0-5.25-.914-8.927-2.735-11.032-1.812-2.102-4.46-3.156-7.937-3.156-3.469 0-6.438 1.437-8.906 4.312-2.461 2.867-3.688 7.29-3.688 13.266v31.14h-19.266v-34.171c0-5.407-.914-9.18-2.734-11.329-1.812-2.144-4.46-3.218-7.937-3.218-3.47 0-6.418 1.418-8.844 4.25-2.418 2.824-3.625 7.265-3.625 13.328v31.14h-19.516v-64.218H244l5.828 18.656c1.695-7.031 4.601-12.16 8.719-15.39 4.125-3.227 8.93-4.844 14.421-4.844 5.008 0 9.43 1.398 13.266 4.187 3.832 2.781 6.598 6.961 8.297 12.531 2.102-5.488 5.05-9.586 8.844-12.297 3.8-2.707 8.004-4.062 12.61-4.062Zm57.06-.359c20.758 0 31.14 10.261 31.14 30.78v35.016h-9.562l-5.453-17.687c-2.023 6.055-5.496 10.777-10.422 14.172-4.93 3.398-10.949 5.094-18.062 5.094-6.625 0-11.735-1.614-15.328-4.844-3.594-3.238-5.391-7.16-5.391-11.766 0-6.539 2.687-11.789 8.062-15.75 5.375-3.957 13.914-6.785 25.625-8.484l11.157-1.563c-.493-3.476-1.668-5.96-3.532-7.453-1.855-1.5-4.636-2.25-8.343-2.25-3.805 0-6.618.774-8.438 2.313-1.812 1.531-3 3.59-3.562 6.172h-19.516c.895-7.032 3.844-12.743 8.844-17.141 5.008-4.406 12.601-6.61 22.781-6.61Zm-5.812 52.343c3.476 0 6.566-.765 9.265-2.297 2.707-1.53 4.867-3.585 6.485-6.171 1.613-2.594 2.421-5.383 2.421-8.375l-6.53.859c-6.712 1.043-11.579 2.453-14.61 4.234-3.031 1.782-4.547 3.84-4.547 6.172 0 1.543.625 2.86 1.875 3.953 1.258 1.086 3.14 1.625 5.64 1.625Zm80.702-52.343c7.187 0 13.02 2.43 17.5 7.28 4.488 4.845 6.734 12.032 6.734 21.563v36.953h-19.266v-34.171c0-5.407-.953-9.18-2.859-11.329-1.898-2.144-4.742-3.218-8.531-3.218-3.961 0-7.172 1.418-9.64 4.25-2.462 2.824-3.688 7.265-3.688 13.328v31.14h-19.516v-64.218h9.688l5.937 18.781c1.695-7.031 4.645-12.18 8.844-15.453 4.207-3.27 9.14-4.906 14.797-4.906Zm77.668 1.578v16.234H503.54v21.453c0 4.438.742 7.465 2.234 9.078 1.5 1.618 4.348 2.422 8.547 2.422 2.344 0 4.461-.117 6.36-.36 1.906-.237 3.581-.476 5.03-.718v16.11c-1.53.32-3.53.664-6 1.03-2.46.364-5.464.548-9.015.548-9.137 0-15.824-2.055-20.062-6.172-4.243-4.125-6.36-10.551-6.36-19.282V249.49H471.43v-16.234h13.454l7.265-19.032h11.39v19.032Zm0 0"/><path fill="#201f1e" d="M558.183 231.677c20.758 0 31.14 10.261 31.14 30.78v35.016h-9.562l-5.453-17.687c-2.023 6.055-5.496 10.777-10.422 14.172-4.93 3.398-10.949 5.094-18.062 5.094-6.625 0-11.735-1.614-15.328-4.844-3.594-3.238-5.39-7.16-5.39-11.766 0-6.539 2.687-11.789 8.062-15.75 5.375-3.957 13.914-6.785 25.625-8.484l11.156-1.563c-.492-3.476-1.668-5.96-3.531-7.453-1.856-1.5-4.637-2.25-8.344-2.25-3.805 0-6.617.774-8.438 2.313-1.812 1.531-3 3.59-3.562 6.172h-19.516c.895-7.032 3.844-12.743 8.844-17.141 5.008-4.406 12.602-6.61 22.781-6.61Zm-5.812 52.343c3.476 0 6.566-.765 9.265-2.297 2.707-1.53 4.868-3.585 6.485-6.171 1.613-2.594 2.422-5.383 2.422-8.375l-6.532.859c-6.71 1.043-11.578 2.453-14.609 4.234-3.031 1.782-4.547 3.84-4.547 6.172 0 1.543.625 2.86 1.875 3.953 1.258 1.086 3.14 1.625 5.64 1.625Zm83.842-19.625v-31.14h19.391v64.218h-9.687l-5.938-18.656c-1.7 6.95-4.633 12.059-8.797 15.328-4.156 3.274-9.062 4.907-14.719 4.907-7.105 0-12.902-2.422-17.39-7.266-4.48-4.852-6.719-12.047-6.719-21.578v-36.953h19.266v34.172c0 5.406.925 9.183 2.78 11.328 1.864 2.136 4.735 3.203 8.61 3.203 3.875 0 7.04-1.41 9.5-4.235 2.47-2.82 3.703-7.265 3.703-13.328Zm0 0"/><g clip-path="url(#a)"><path fill="#000072" d="M575.426 119.152c-1.024-1.242-2.215-2.43-3.723-2.996-12.773 1.43-25.558 2.64-38.379 3.516 2.156-2.043 1.895-5.797 1.457-8.73-.492-3.348-1.242-6.708-2.789-9.723-1.543-3.012-3.52-6.953-6.906-6.903-4.578.075-8.93.618-13.438 1.422.278-1.925-.117-3.906-.832-5.715-.71-1.816-1.734-3.484-2.765-5.14-.41-.66-.836-1.328-1.41-1.852-.579-.52-1.348-.886-2.121-.808-.555.058-1.114.113-1.668.168-14.938 1.421-30.114-4.57-45.086 2.504-.883.043-1.766.09-2.645.14-1.289-.055-1.95.43-3.125.965-6.55 2.965-12.758 6.941-19.793 8.45-2.445.523-5.543 1.155-8.023 1.48-.91-1.887-3.203-2.914-5.22-3.477-2.019-.562-4.151-.539-6.245-.48-7.664.21-15.32.773-22.969 1.332-10.535.77-23.965 1.265-31.976 2.441-5.204.766-18.137 1.16-18.868 25.492-.722 24.336 8.578 37.59 18.856 41.285 10.281 3.692 27.836-1.257 27.836-1.257s6.074 21.48 18.176 24.625c7.972 2.07 32.398-2.153 37.437-2.844 13.008-1.793 18.121-2.992 26.504-4.293 1.523-.234 3.457-.43 4.984-.652 2.743-.399 5.446-1.961 6.594-4.485.66 1.04 2.297 1.238 3.524 1.153 1.23-.083 2.421-.48 3.652-.524 14.633-3.02 38.066-8.726 39.633-9 1.562-.273 2.789-3.7 2.789-3.7s6.242-1.179 7.27-2.87c1.027-1.688 1.16-2.93 1.16-2.93 7.011 0 14.597-2.668 21.495-3.918 6.07-1.094 12.168-2.195 18.06-4.031 1.847-.574 3.144-2.297 3.667-4.16 2.375-8.336.399-17.793-5.113-24.485Zm0 0"/></g><path fill="#fff" d="M419.11 154.684c-.844-17.602-6.329-30.215-15.352-29.989-2.91.996-9.477 11.953-8.7 25.801.774 13.844 7.016 28.024 12.856 28.805 5.832.773 12.04-7.016 11.195-24.617Zm-17.938 11.527c-.98-1.176 8.988-16.711 9.594-16.844 2.742-.586-8.614 18.016-9.594 16.844Zm-3.918-8.848c.5-4.133 15.473-24.64 15.863-23.031.39 1.613-16.05 24.629-15.863 23.031Zm-41.852-54.988c-1.105 1.8-8.644 10.031-7.21 25.46 1.25 13.43 6.23 26.962 11.507 29.165 5.285 2.203 13.574-5.465 12.547-26.25-1.027-20.781-8.285-32.238-16.844-28.375Zm-4.554 28.785c-.782-1.176 15.472-21.344 15.668-20.535.191.813-14.325 22.547-15.668 20.535Zm3.183 8.809c-1.32-1.957 12.485-18.016 12.485-16.254.004 1.765-11.649 17.492-12.485 16.254Zm0 0"/><path fill="#8f93ff" d="M505.668 100.156c-10.211.985-33.473 4.297-33.473 4.297.262-1.95-.32-3.898-.976-5.746a73.304 73.304 0 0 0-3.774-8.809c-1.007-1.976-2.129-5.164-4.343-5.164l-5.332.16s3.71-3.921 5.332-3.874c1.625.05 34.015-4.114 36.617-3.02 2.597 1.102 9.984 12.484 5.949 22.156ZM369.297 101.2c-1.121-1.347-2.242-2.703-3.363-4.05-.332-.399-.68-.813-1.16-1-2.297-.919.28 2.019.62 2.386a68.27 68.27 0 0 1 3.184 3.774 60.199 60.199 0 0 1 5.352 8.082c3.066 5.582 5.18 11.718 5.82 18.07.227 2.285.27 4.582.309 6.879.078 4.246.148 8.574-1.082 12.64-1.446 4.801-4.61 8.93-8.278 12.344-.273.25-.554.52-.656.871-.102.356.074.817.437.88.325.058.606-.208.829-.458 1.89-2.07 3.78-4.156 5.304-6.512 1.055-1.628 1.922-3.378 2.684-5.164.715-1.675 1.344-3.39 1.738-5.168.445-2.003.602-4.058.676-6.109.39-10.805-1.48-22.016-7.457-31.027-1.492-2.258-3.23-4.352-4.957-6.438Zm-21.777 41.176c-3.493-7.207-4.247-15.54-3.086-23.46.425-2.927 1.12-5.845 2.394-8.513 1.277-2.668 3.18-5.086 5.684-6.668.758-.48-1.57-.222-2.059.184-1.973 1.644-3.57 3.371-4.715 5.71-1.398 2.856-2.047 6.024-2.402 9.184-1.281 11.31 1.226 23.235 8.012 32.372.703.953 1.539 1.921 2.687 2.207a2403.12 2403.12 0 0 1-3.254-5.305c-1.156-1.867-2.304-3.734-3.261-5.711Zm45.37-5.21c1.176-3.778 3.016-7.56 6.262-9.81.68-.472 1.422-.878 1.926-1.535.121-.16.235-.36.172-.547-.293-.851-4.95 3.47-5.379 3.965-1.738 2.004-3.05 4.367-3.953 6.852-1.457 4.023-1.895 8.347-1.902 12.625-.02 8.812 1.8 17.777 6.332 25.332 1.394 2.32 3.14 4.586 5.609 5.7-.262-1.446-1.25-2.638-2.144-3.802-8.313-10.824-10.977-25.75-6.922-38.78Zm30.528.343c-1.79-4.164-3.816-8.285-6.715-11.77-2.898-3.484-7.39-5.843-11.785-6.968-3.266-.84-6.883-.223-9.688 1.648-2.44 1.629-4.207 4.098-5.574 6.687-5.195 9.848-5.136 21.606-3.86 32.665.243 2.28 1.29 3.328 1.36-.239.067-3.566-.41-5.851-.41-14.3 0-8.45 4.356-26.934 17.024-25.438 12.668 1.496 20.402 18.598 21.628 35.52 1.223 16.921-3.808 24.09-6.289 26.71-2.48 2.614-3.804 3.711-1.988 3.336 5.113-3.437 7.606-9.672 8.809-15.718 1.523-7.664.879-15.512.14-23.29-.293-3.078-1.43-6.007-2.652-8.843Zm55.484-22.356c-3.8-6.113-18.382-27.215-19.37-28.289-.985-1.074-2.571-1.797-1.766-.457.355.59 21.832 30.176 27.105 41.434 5.277 11.258 10.434 34.191 0 45.02-.531 1.695 2.04-.782 3.414-2.829 1.371-2.05 5.856-8.976 3.809-23.414-2.047-14.441-9.395-25.355-13.192-31.465Zm1.805 9.012c-2.32-5.312-5.32-7.328-4.695-5.766.066.18.242.508.484.957-1.219-.328-3.223-.918-4.527-.738-2.489-2.402-4.864-3.183-5.832-3.433-.325-.082-3.45-.012-8.094.152-1.348-2.23-2.805-4.691-4.11-6.828a.5.5 0 0 0 .122-.153c.152-.652-11.852 5.797-11.32 6.149.468.305 8.609-4.106 10.785-5.668 1.156 2.176 2.308 4.363 3.464 6.539-1.964.074-4.164.16-6.511.258 1.078-.688 2.14-1.524 3.39-2.332.157-.102.23-.38.075-.477-.079-.05-.18-.023-.266.004-.535.184-1.012.512-1.488.82a37.294 37.294 0 0 1-3.602 2.063c-16.84.715-39.82 1.879-40.66 2.098-1.313.34-2.164.617-.367 1.015 1.867.41 52.523-1.601 57.375-2.113 4.851-.508 21.976 14.707 15.218 55.187-1.539 2.852 1.735 1.477 2.282-5.675.554-7.149 3.273-23.356-6.953-42.887-.813-1.5-1.684-2.723-2.567-3.727 1.246.286 2.828.168 3.813.18 2.164 3.988 8.363 15.25 10.093 28.664 2.036 15.723-3.203 21.598-3.496 22.004-.191 2.8 1.946.809 4.809-8.254 3.223-13.824-5.102-32.726-7.422-38.039Zm35.227-19.707c-1.239-2.5-2.688-7.578-3.563-8.844-.242.043-.422.075-.723.125.137 4.5 3.313 9.399 9.114 17.934 5.8 8.539 18.336 24.164 8.82 46.098-.898 2.285 1.32 1.054 2.883-4.286 1.562-5.34 3.535-13.804-1.13-26.566-2.46-6.61-13.776-21.18-15.401-24.461Zm10.925 15.64s6.016.055 6.457-.425c.442-.484-7.918-.176-6.457.426ZM454 106.388c5.031 2.593 9.555-5.996 7.242-12.992-.898-2.79-1.73-1.625-.836 1.93.895 3.55-1.566 10.32-4.492 10.32-5.297 0-8.457-13-4.758-17.301.836-1.555-.574-1.735-1.422 0-1.34 2.738-2.675 13.66 4.266 18.043Zm84.441 32.586c-.867-5.371-1.96-6.082-1.68-4.641.282 1.441 3.255 10.723.555 21.414l1.125-.023s1.86-5.223 0-16.75Zm-112.644-43.04h-1.621c8.465 9.84 8.14 15.919 9.12 16.899.974.977.544-7.398-7.5-16.898Zm13.89 12.801c.172.434.575.95.993.743.265-.836.105-1.743-.125-2.59-.508-1.89-1.332-3.703-2.176-5.469-.277-.586-1.75-4.012-2-1.93-.14 1.133 1.39 3.14 1.766 4.285.539 1.645.914 3.344 1.543 4.961Zm0 0"/></svg>